<?xml version="1.0" encoding="utf-8"?>
<!-- Generator: Adobe Illustrator 19.0.0, SVG Export Plug-In . SVG Version: 6.00 Build 0)  -->
<svg version="1.1" id="layer" xmlns="http://www.w3.org/2000/svg" xmlns:xlink="http://www.w3.org/1999/xlink" x="0px" y="0px"
	 viewBox="-153 -46 652 652" style="enable-background:new -153 -46 652 652;" xml:space="preserve">
<style type="text/css">
	.st0{fill:#DC3B94;}
	.st1{fill:#231F20;}
</style>
<path class="st0" d="M-2.4,248c-3.4-11.5-11.4-20.6-22.5-25.6c-4-1.8-8.1-2.7-12.2-2.7c-11.7,0-20.9,7.3-26.2,12.6
	c-5.2-5.3-14.5-12.6-26.2-12.6c-4.2,0-8.2,0.9-12.2,2.7c-11.1,5-19.1,14.1-22.6,25.6c-4.2,13.9-1.3,29.8,8.2,44.9
	c17.4,27.6,48.1,45.8,49.3,46.6l3.3,1.9l3.3-1.9c1.3-0.7,31.8-19,49.3-46.6C-1.1,277.8,1.8,261.9-2.4,248 M-89.5,232.8
	c11.5,0,20.6,13.1,20.7,13.4l5.4,8.2l5.4-8.2c0.1-0.1,9.1-13.4,20.7-13.4c2.2,0,4.5,0.5,6.7,1.5c7.6,3.4,13,9.6,15.4,17.4
	c3.1,10.1,0.6,22.2-6.8,34c-12.5,20-33.6,35-41.4,40.2c-7.8-5.1-28.9-20.3-41.5-40.2c-7.5-11.7-9.8-23.8-6.8-34
	c2.3-7.8,7.8-14,15.4-17.4C-94,233.3-91.7,232.8-89.5,232.8"/>
<path class="st1" d="M409.9,323.6c1,1.4,1.9,2.6,2.8,3.5c7.5,8.2,16.4,12.3,26.8,12.3c8.2,0,15.7-2.8,22.2-8.3
	c3.7-3.1,6.6-6.6,8.8-10.7c2.1-4.1,3.3-9.5,3.4-16.2c0-4-0.7-7.8-2.1-11.5c-1.4-3.7-3.4-7.2-6.1-10.4c-3.1-3.5-6.6-6.3-10.7-8.3
	c-4.1-2.1-8.4-3.4-13.1-3.8c-2.7-0.2-5.1-1-7.4-2c-2.2-1.1-4.3-2.7-6-4.8c-1.8-2-3-4.3-3.7-6.7c-0.7-2.5-1-4.9-0.9-7.7
	c0.3-5.2,2.7-9.6,6.8-13.2c4.3-3.5,9-5,14.4-4.7c5.2,0.3,9.6,2.7,13.4,7c1.2,1.4,2.1,2.6,2.9,3.7c0.6,0.7,1.6,1.2,3,1.2
	c1.3,0,2.2-0.4,3.2-1.3c0.9-0.9,1.3-1.9,1.3-3.2c0-1-0.2-1.8-0.6-2.5c-0.7-1.3-1.7-2.7-2.8-4c-6.3-6.8-13.6-10.3-21.8-10.3
	c-7.2,0-13.4,2.3-18.7,6.9c-6.6,5.6-10,13-10.1,22.2c0,3.4,0.6,6.6,1.8,9.7s2.9,6,5,8.7c2.5,2.9,5.4,5.2,8.8,6.9
	c3.4,1.7,6.9,2.8,10.8,3.2c3.4,0.3,6.6,1.2,9.6,2.8c3,1.5,5.6,3.6,7.9,6.3c4.1,4.7,6.1,10.1,6.1,16.3c0,4.6-0.9,8.5-2.6,11.6
	c-1.7,3.2-3.8,5.9-6.5,8.1c-4.8,4.1-10.3,6.1-16.4,6.1c-4.7-0.1-8.7-1.1-11.7-2.8c-3.1-1.7-5.9-3.8-8-6.4c-0.9-1.1-1.6-2-2.2-3
	c-1-1.4-2.2-2-4-2c-1.3,0-2.3,0.4-3.2,1.3c-0.9,0.9-1.3,1.9-1.3,3.2C408.9,321.9,409.3,322.7,409.9,323.6 M331.1,221.5
	c-1.3,0-2.2,0.4-3.2,1.3c-0.9,0.9-1.3,1.9-1.3,3.2v108.8c0,1.3,0.4,2.3,1.3,3.2c0.9,0.9,1.9,1.3,3.2,1.3c1.3,0,2.3-0.4,3.2-1.3
	c0.9-0.9,1.3-1.9,1.3-3.2V291h25.7c1.3,0,2.5,0,3.4-0.1l28.8,46c1.1,1.6,2.5,2.5,4,2.5c1.3,0,2.3-0.4,3.2-1.3
	c0.9-0.9,1.3-1.9,1.3-3.2c0-0.9-0.3-1.6-0.9-2.5l-27.2-43.7c4.7-2.1,8.5-4.8,11.7-8c6.7-6.7,10.1-15,10.1-24.6
	c0-9.6-3.4-17.8-10.1-24.7c-6.7-6.7-15-10.1-24.6-10.1h-30V221.5z M361.3,230.6c7,0,13.1,2.6,18.2,7.6c5,4.9,7.5,10.9,7.5,18.2
	c0,7.2-2.5,13.2-7.5,18.2c-5,5-11.1,7.5-18.2,7.5h-25.7v-51.4H361.3z M229.2,298.6c0,5.7,1,10.9,3,15.7c2,4.8,5,9.2,9,13.1
	c8,8,17.6,12,28.9,12c11.3,0,20.9-4,28.9-12s12-17.6,12-28.9v-72.4c0-1.3-0.4-2.3-1.3-3.2c-0.9-0.9-1.9-1.3-3.2-1.3
	s-2.3,0.4-3.2,1.3c-0.9,0.9-1.3,1.9-1.3,3.2v72.5c0,8.8-3.1,16.3-9.3,22.4c-6.2,6.2-13.7,9.3-22.4,9.3c-8.8,0-16.2-3.1-22.4-9.3
	c-6.2-6.2-9.4-13.7-9.4-22.4v-72.5c0-1.3-0.4-2.3-1.3-3.2c-0.9-0.9-1.9-1.3-3.2-1.3s-2.3,0.4-3.2,1.3c-0.9,0.9-1.3,1.9-1.3,3.2v72.5
	H229.2z M200,238.8c-11.4-11.5-25.3-17.3-41.7-17.3c-16.2,0-30.2,5.8-41.8,17.3c-11.5,11.5-17.2,25.4-17.2,41.7
	c0,8,1.5,15.5,4.5,22.5c3,7,7.3,13.5,12.7,19.1c5.8,5.6,12.2,9.7,19.1,12.7c7,3,14.5,4.5,22.5,4.5c16.3,0,30.2-5.8,41.7-17.3
	c11.5-11.5,17.3-25.4,17.3-41.8C217.3,264.2,211.5,250.3,200,238.8 M193.6,245.2c9.8,9.7,14.6,21.5,14.6,35.2s-4.9,25.5-14.6,35.4
	c-9.7,9.7-21.5,14.6-35.2,14.6s-25.5-4.9-35.4-14.6c-9.7-9.7-14.6-21.5-14.6-35.4c0-13.8,4.9-25.5,14.6-35.2
	c9.8-9.8,21.7-14.6,35.4-14.6C172.1,230.6,183.9,235.5,193.6,245.2 M67.1,281.8l35.6-53.2c0.5-0.6,0.7-1.5,0.7-2.5
	c0-1.3-0.4-2.3-1.3-3.2c-0.9-0.9-1.9-1.3-3.2-1.3c-1.6,0-2.8,0.6-3.7,1.8l-32.7,48.9l-32.7-49.1c-1-1.2-2.1-1.8-3.6-1.8
	c-1.3,0-2.3,0.4-3.2,1.3c-0.9,0.9-1.3,1.9-1.3,3.2c0,0.9,0.2,1.7,0.7,2.5l35.6,53.2v53.1c0,1.3,0.4,2.3,1.3,3.2s1.9,1.3,3.2,1.3
	s2.3-0.4,3.2-1.3s1.3-1.9,1.3-3.2v-52.9H67.1z"/>
</svg>
